<mxfile host="app.diagrams.net" modified="2021-10-07T03:35:27.781Z" agent="5.0 (Windows NT 10.0; Win64; x64) AppleWebKit/537.36 (KHTML, like Gecko) Chrome/94.0.4606.61 Safari/537.36" etag="8yjgyVNntOdH1bsyXLvN" version="15.4.3" type="github">
  <diagram name="Page-1" id="efa7a0a1-bf9b-a30e-e6df-94a7791c09e9">
    <mxGraphModel dx="2907" dy="1122" grid="1" gridSize="10" guides="1" tooltips="1" connect="1" arrows="1" fold="1" page="1" pageScale="1" pageWidth="826" pageHeight="1169" background="none" math="0" shadow="0">
      <root>
        <mxCell id="0" />
        <mxCell id="1" parent="0" />
        <mxCell id="19" value="&lt;p style=&quot;margin: 0px ; margin-top: 4px ; text-align: center ; text-decoration: underline&quot;&gt;&lt;/p&gt;&lt;p style=&quot;margin: 0px ; margin-left: 8px&quot;&gt;&lt;span&gt;&lt;b&gt;FOOD Description&lt;/b&gt;&lt;/span&gt;&lt;/p&gt;&lt;hr&gt;&lt;p style=&quot;margin: 0px ; margin-left: 8px&quot;&gt;&lt;span&gt;API FatSecret Platform&lt;/span&gt;&lt;/p&gt;&lt;p style=&quot;margin: 0px ; margin-left: 8px&quot;&gt;Nutritional data&lt;/p&gt;&lt;p style=&quot;margin: 0px ; margin-left: 8px&quot;&gt;Calories,Carbs,Ingriedents...etc&lt;/p&gt;" style="verticalAlign=top;align=left;overflow=fill;fontSize=12;fontFamily=Helvetica;html=1;strokeColor=#003366;shadow=1;fillColor=#D4E1F5;fontColor=#003366" parent="1" vertex="1">
          <mxGeometry x="970" y="60" width="190" height="180" as="geometry" />
        </mxCell>
        <mxCell id="20" value="&lt;b&gt;&amp;nbsp; &amp;nbsp; Goals/Progress&lt;/b&gt;&lt;hr style=&quot;text-align: left&quot;&gt;&lt;div style=&quot;text-align: left&quot;&gt;Daily&lt;/div&gt;&lt;div style=&quot;text-align: left&quot;&gt;Weekly&lt;/div&gt;&lt;div style=&quot;text-align: left&quot;&gt;Monthly&lt;/div&gt;&lt;div style=&quot;text-align: left&quot;&gt;wieghtloss&lt;/div&gt;&lt;div style=&quot;text-align: left&quot;&gt;calorie intake&lt;/div&gt;&lt;div style=&quot;text-align: left&quot;&gt;calorie burned&lt;/div&gt;" style="verticalAlign=top;align=center;overflow=fill;fontSize=12;fontFamily=Helvetica;html=1;strokeColor=#003366;shadow=1;fillColor=#D4E1F5;fontColor=#003366" parent="1" vertex="1">
          <mxGeometry x="700" y="72.5" width="150" height="187.5" as="geometry" />
        </mxCell>
        <object label="&lt;p style=&quot;margin: 0px ; margin-top: 4px ; text-align: center ; text-decoration: underline&quot;&gt;&lt;strong&gt;Calendar&lt;/strong&gt;&lt;/p&gt;&lt;hr&gt;Display info from pages&lt;p style=&quot;margin: 0px ; margin-left: 8px&quot;&gt;Motivational quote&lt;/p&gt;&lt;p style=&quot;margin: 0px ; margin-left: 8px&quot;&gt;&lt;br&gt;&lt;/p&gt;&lt;p style=&quot;margin: 0px ; margin-left: 8px&quot;&gt;Monthly Goals....&lt;/p&gt;&lt;p style=&quot;margin: 0px ; margin-left: 8px&quot;&gt;Current Weight&lt;/p&gt;&lt;p style=&quot;margin: 0px ; margin-left: 8px&quot;&gt;Lbs lost to date&lt;/p&gt;&lt;p style=&quot;margin: 0px ; margin-left: 8px&quot;&gt;&lt;br&gt;&lt;/p&gt;&lt;p style=&quot;margin: 0px ; margin-left: 8px&quot;&gt;&lt;br&gt;&lt;/p&gt;&lt;p style=&quot;margin: 0px ; margin-left: 8px&quot;&gt;Food Intake / Calories&amp;nbsp;&lt;/p&gt;&lt;p style=&quot;margin: 0px ; margin-left: 8px&quot;&gt;Water Intake&lt;/p&gt;&lt;p style=&quot;margin: 0px ; margin-left: 8px&quot;&gt;Calories Goal&lt;/p&gt;&lt;p style=&quot;margin: 0px ; margin-left: 8px&quot;&gt;Goals&lt;/p&gt;&lt;p style=&quot;margin: 0px ; margin-left: 8px&quot;&gt;&lt;br&gt;&lt;/p&gt;&lt;p style=&quot;margin: 0px ; margin-left: 8px&quot;&gt;&lt;br&gt;&lt;/p&gt;" FoodIntake="food/Calories- use api to find specific calorie specs" id="21">
          <mxCell style="verticalAlign=top;align=left;overflow=fill;fontSize=12;fontFamily=Helvetica;html=1;strokeColor=#b85450;shadow=1;fillColor=#f8cecc;gradientColor=#CC00CC;" parent="1" vertex="1">
            <mxGeometry x="-140" y="20.000000000000007" width="340" height="871.25" as="geometry" />
          </mxCell>
        </object>
        <mxCell id="22" value="&lt;p style=&quot;margin: 0px ; margin-top: 4px ; text-align: center ; text-decoration: underline&quot;&gt;&lt;strong&gt;User&lt;/strong&gt;&lt;/p&gt;&lt;hr&gt;&lt;p style=&quot;margin: 0px ; margin-left: 8px&quot;&gt;IdUser&lt;/p&gt;&lt;p style=&quot;margin: 0px ; margin-left: 8px&quot;&gt;Name&lt;/p&gt;&lt;p style=&quot;margin: 0px ; margin-left: 8px&quot;&gt;LastName&lt;/p&gt;&lt;p style=&quot;margin: 0px ; margin-left: 8px&quot;&gt;Email&lt;/p&gt;&lt;p style=&quot;margin: 0px ; margin-left: 8px&quot;&gt;UserName&lt;/p&gt;&lt;p style=&quot;margin: 0px ; margin-left: 8px&quot;&gt;Password&lt;/p&gt;&lt;p style=&quot;margin: 0px ; margin-left: 8px&quot;&gt;&lt;br&gt;&lt;/p&gt;" style="verticalAlign=top;align=left;overflow=fill;fontSize=12;fontFamily=Helvetica;html=1;strokeColor=#003366;shadow=1;fillColor=#D4E1F5;fontColor=#003366" parent="1" vertex="1">
          <mxGeometry x="240" y="79.99999999999994" width="160.0000000000001" height="180" as="geometry" />
        </mxCell>
        <mxCell id="28" value="&lt;p style=&quot;margin: 0px ; margin-top: 4px ; text-align: center ; text-decoration: underline&quot;&gt;&lt;strong&gt;Profile&lt;/strong&gt;&lt;/p&gt;&lt;hr&gt;&lt;p style=&quot;margin: 0px ; margin-left: 8px&quot;&gt;&lt;br&gt;&lt;/p&gt;&lt;p style=&quot;margin: 0px ; margin-left: 8px&quot;&gt;Name&lt;/p&gt;&lt;p style=&quot;margin: 0px ; margin-left: 8px&quot;&gt;Description&lt;/p&gt;&lt;p style=&quot;margin: 0px ; margin-left: 8px&quot;&gt;In Depth information of all&lt;/p&gt;&lt;p style=&quot;margin: 0px ; margin-left: 8px&quot;&gt;user input information&lt;/p&gt;" style="verticalAlign=top;align=left;overflow=fill;fontSize=12;fontFamily=Helvetica;html=1;strokeColor=#003366;shadow=1;fillColor=#D4E1F5;fontColor=#003366" parent="1" vertex="1">
          <mxGeometry x="470" y="80.00000000000034" width="160" height="180" as="geometry" />
        </mxCell>
        <mxCell id="35" value="&lt;p style=&quot;margin: 0px ; margin-top: 4px ; text-align: center ; text-decoration: underline&quot;&gt;&lt;b&gt;Log Workout&lt;/b&gt;&lt;/p&gt;&lt;hr&gt;&lt;p style=&quot;margin: 0px ; margin-left: 8px&quot;&gt;&lt;br&gt;&lt;/p&gt;&lt;p style=&quot;margin: 0px ; margin-left: 8px&quot;&gt;Name&lt;/p&gt;&lt;p style=&quot;margin: 0px ; margin-left: 8px&quot;&gt;Description&lt;/p&gt;&lt;p style=&quot;margin: 0px ; margin-left: 8px&quot;&gt;Workout&lt;/p&gt;&lt;p style=&quot;margin: 0px ; margin-left: 8px&quot;&gt;Start -End&lt;/p&gt;&lt;p style=&quot;margin: 0px ; margin-left: 8px&quot;&gt;Time&lt;/p&gt;&lt;p style=&quot;margin: 0px ; margin-left: 8px&quot;&gt;CreatedAt&lt;/p&gt;&lt;p style=&quot;margin: 0px ; margin-left: 8px&quot;&gt;UpdatedAt&lt;/p&gt;&lt;p style=&quot;margin: 0px ; margin-left: 8px&quot;&gt;Calories burned&lt;/p&gt;" style="verticalAlign=top;align=left;overflow=fill;fontSize=12;fontFamily=Helvetica;html=1;strokeColor=#003366;shadow=1;fillColor=#D4E1F5;fontColor=#003366" parent="1" vertex="1">
          <mxGeometry x="1200" y="80.00000000000011" width="160" height="190" as="geometry" />
        </mxCell>
        <mxCell id="1tFLNnEglhNYscL3TVoK-114" value="API&lt;br&gt;FatSecret Platform-&amp;nbsp;&amp;nbsp;" style="whiteSpace=wrap;html=1;gradientColor=#CC00CC;" vertex="1" parent="1">
          <mxGeometry x="-413" y="120" width="120" height="60" as="geometry" />
        </mxCell>
        <mxCell id="1tFLNnEglhNYscL3TVoK-116" value="&lt;b&gt;&lt;font style=&quot;font-size: 22px&quot;&gt;PAGES&lt;/font&gt;&lt;/b&gt;" style="rounded=0;whiteSpace=wrap;html=1;gradientColor=#CC00CC;" vertex="1" parent="1">
          <mxGeometry x="250" width="860" height="60" as="geometry" />
        </mxCell>
        <mxCell id="1tFLNnEglhNYscL3TVoK-119" value="" style="endArrow=classic;startArrow=classic;html=1;rounded=0;fontSize=22;edgeStyle=orthogonalEdgeStyle;" edge="1" parent="1">
          <mxGeometry width="50" height="50" relative="1" as="geometry">
            <mxPoint x="160" y="300" as="sourcePoint" />
            <mxPoint x="550" y="260" as="targetPoint" />
          </mxGeometry>
        </mxCell>
        <mxCell id="1tFLNnEglhNYscL3TVoK-120" value="" style="endArrow=classic;startArrow=classic;html=1;rounded=0;fontSize=22;edgeStyle=orthogonalEdgeStyle;" edge="1" parent="1">
          <mxGeometry width="50" height="50" relative="1" as="geometry">
            <mxPoint x="400" y="174.5" as="sourcePoint" />
            <mxPoint x="460" y="174.5" as="targetPoint" />
          </mxGeometry>
        </mxCell>
        <mxCell id="1tFLNnEglhNYscL3TVoK-121" value="" style="endArrow=classic;startArrow=classic;html=1;rounded=0;fontSize=22;edgeStyle=orthogonalEdgeStyle;" edge="1" parent="1">
          <mxGeometry width="50" height="50" relative="1" as="geometry">
            <mxPoint x="170" y="300" as="sourcePoint" />
            <mxPoint x="770" y="260" as="targetPoint" />
          </mxGeometry>
        </mxCell>
        <mxCell id="1tFLNnEglhNYscL3TVoK-123" value="" style="endArrow=classic;startArrow=classic;html=1;rounded=0;fontSize=22;edgeStyle=orthogonalEdgeStyle;" edge="1" parent="1">
          <mxGeometry width="50" height="50" relative="1" as="geometry">
            <mxPoint x="180" y="300" as="sourcePoint" />
            <mxPoint x="1280" y="267.5" as="targetPoint" />
            <Array as="points">
              <mxPoint x="1230" y="300" />
              <mxPoint x="1280" y="300" />
            </Array>
          </mxGeometry>
        </mxCell>
        <mxCell id="1tFLNnEglhNYscL3TVoK-124" value="" style="endArrow=classic;startArrow=classic;html=1;rounded=0;fontSize=22;edgeStyle=orthogonalEdgeStyle;" edge="1" parent="1">
          <mxGeometry width="50" height="50" relative="1" as="geometry">
            <mxPoint x="190" y="300" as="sourcePoint" />
            <mxPoint x="1060" y="240" as="targetPoint" />
          </mxGeometry>
        </mxCell>
      </root>
    </mxGraphModel>
  </diagram>
</mxfile>
